<svg width="246" height="139" viewBox="0 0 246 139" fill="none" xmlns="http://www.w3.org/2000/svg">
<path d="M11 69L235 71.0383" stroke="url(#paint0_linear_466_29458)" stroke-width="20" stroke-linecap="square"/>
<path d="M48.192 70.36V62.68H94.272V70.36H48.192ZM88.8 35.8H96.96V103H88.8V35.8ZM43.68 35.8H51.84V103H43.68V35.8ZM116.817 103V95.32H150.705V103H116.817ZM116.817 43.48V35.8H150.705V43.48H116.817ZM116.817 70.36V62.68H148.785V70.36H116.817ZM112.305 35.8H120.465V103H112.305V35.8ZM165.086 35.8H173.246V103H165.086V35.8ZM190.538 35.8H200.138L198.218 83.8H192.458L190.538 35.8ZM190.058 99.16C190.058 97.688 190.57 96.44 191.594 95.416C192.682 94.392 193.93 93.88 195.338 93.88C196.81 93.88 198.058 94.392 199.082 95.416C200.106 96.44 200.618 97.688 200.618 99.16C200.618 100.568 200.106 101.816 199.082 102.904C198.058 103.928 196.81 104.44 195.338 104.44C193.93 104.44 192.682 103.928 191.594 102.904C190.57 101.816 190.058 100.568 190.058 99.16Z" fill="white"/>
<defs>
<linearGradient id="paint0_linear_466_29458" x1="10.9955" y1="69.4999" x2="234.996" y2="71.5388" gradientUnits="userSpaceOnUse">
<stop stop-color="#FA00FF"/>
<stop offset="1" stop-color="#26C3E6"/>
</linearGradient>
</defs>
</svg>
