<svg width="262" height="131" viewBox="0 0 262 131" fill="none" xmlns="http://www.w3.org/2000/svg">
<path d="M26 69L236 69" stroke="url(#paint0_linear_447_28979)" stroke-width="52" stroke-linecap="square"/>
<path d="M44.1355 49.88V9.24H47.2075V47.832C47.2075 53.5493 46.0128 58.1147 43.6235 61.528C42.4288 63.2773 41.2128 64.728 39.9755 65.88C38.7382 67.0747 37.2235 68.312 35.4315 69.592L34.0875 67.608C40.7862 62.7013 44.1355 56.792 44.1355 49.88ZM65.353 40.6L59.401 55H56.393L73.801 13.208H75.529L93.065 55H89.801L83.785 40.6H65.353ZM74.505 17.944C73.865 19.864 73.289 21.464 72.777 22.744L66.377 38.104H82.761L76.425 22.808C75.4437 20.4187 74.8037 18.7973 74.505 17.944ZM101.493 55V13.208H102.901L130.165 44.568C131.146 45.6773 132.042 46.7867 132.853 47.896C133.706 48.9627 134.154 49.5173 134.197 49.56C134.111 48.536 134.069 46.5307 134.069 43.544V13.464H137.013V55.256H135.605L107.829 23.384L104.309 19.096C104.394 19.9493 104.437 21.9547 104.437 25.112V55H101.493ZM152.368 55V13.464H155.312V55H152.368ZM178.104 16.088H164.024V13.464H195.064V16.088H180.984V55H178.104V16.088ZM201.853 40.6L195.901 55H192.893L210.301 13.208H212.029L229.565 55H226.301L220.285 40.6H201.853ZM211.005 17.944C210.365 19.864 209.789 21.464 209.277 22.744L202.877 38.104H219.261L212.925 22.808C211.944 20.4187 211.304 18.7973 211.005 17.944Z" fill="white"/>
<path d="M55.948 117V71.432C60.0013 71.1333 63.3933 70.984 66.124 70.984C70.476 70.984 74.06 72.1147 76.876 74.376C79.692 76.5947 81.1 79.752 81.1 83.848C81.1 86.6213 80.2893 89.2027 78.668 91.592C77.0467 93.9813 75.2333 95.88 73.228 97.288C74.8067 99.464 76.748 102.067 79.052 105.096C81.3987 108.083 82.9133 109.96 83.596 110.728C86.1987 113.501 89.1427 115.08 92.428 115.464L92.364 117.512C89.7613 117.469 87.6493 117.085 86.028 116.36C84.4067 115.592 82.8493 114.44 81.356 112.904C79.9053 111.368 76.2573 106.589 70.412 98.568C66.2307 98.568 62.4333 98.44 59.02 98.184V117H55.948ZM68.556 96.008C70.4333 96.008 72.4387 94.7707 74.572 92.296C76.7053 89.8213 77.772 86.9627 77.772 83.72C77.772 80.4347 76.6627 77.96 74.444 76.296C72.268 74.5893 69.3667 73.736 65.74 73.736C63.82 73.736 61.58 73.8213 59.02 73.992V95.688C62.4333 95.9013 65.612 96.008 68.556 96.008ZM97.305 117V75.464H116.697V78.024H100.249V93.128H115.097V95.624H100.249V114.312H117.337V117H97.305ZM129.118 117V75.464H132.062V117H129.118ZM147.43 117V75.656C151.099 75.3573 154.214 75.208 156.774 75.208C160.699 75.208 163.942 76.232 166.502 78.28C169.062 80.2853 170.342 83.1653 170.342 86.92C170.342 89.4373 169.617 91.7627 168.166 93.896C166.715 96.0293 165.073 97.7573 163.238 99.08C168.315 105.821 171.451 109.853 172.646 111.176C175.078 113.693 177.723 115.123 180.582 115.464L180.518 117.448C178.129 117.405 176.187 117.064 174.694 116.424C173.201 115.741 171.707 114.611 170.214 113.032C168.763 111.453 165.542 107.208 160.55 100.296C157.094 100.296 153.702 100.189 150.374 99.976V117H147.43ZM158.95 97.864C160.614 97.864 162.406 96.7547 164.326 94.536C166.246 92.3173 167.206 89.736 167.206 86.792C167.206 83.848 166.203 81.608 164.198 80.072C162.193 78.536 159.59 77.768 156.39 77.768C154.683 77.768 152.678 77.8533 150.374 78.024V97.544C153.446 97.7573 156.305 97.864 158.95 97.864ZM197.658 77.256C196.591 76.9147 195.717 76.2747 195.034 75.336C194.394 74.3547 194.074 73.1813 194.074 71.816C194.074 70.4507 194.565 69.256 195.546 68.232C196.57 67.1653 197.829 66.632 199.322 66.632C200.815 66.632 202.074 67.1653 203.098 68.232C204.122 69.256 204.634 70.4507 204.634 71.816C204.634 73.1813 204.293 74.3547 203.61 75.336C202.97 76.2747 202.095 76.9147 200.986 77.256L217.754 117H214.618L208.602 102.536H189.914L183.962 117H181.018L197.658 77.256ZM199.194 79.752C199.151 79.7947 199.066 80.0293 198.938 80.456C198.639 81.4373 198.106 82.8453 197.338 84.68L190.938 100.168H207.578L201.178 84.744C199.855 81.8 199.194 80.136 199.194 79.752ZM197.274 69.896C196.719 70.4933 196.442 71.2187 196.442 72.072C196.442 72.9253 196.719 73.6507 197.274 74.248C197.829 74.8027 198.511 75.08 199.322 75.08C200.133 75.08 200.815 74.8027 201.37 74.248C201.925 73.6507 202.202 72.9253 202.202 72.072C202.202 71.2187 201.925 70.4933 201.37 69.896C200.815 69.2987 200.133 69 199.322 69C198.511 69 197.829 69.2987 197.274 69.896Z" fill="white"/>
<defs>
<linearGradient id="paint0_linear_447_28979" x1="26" y1="69.5" x2="236" y2="69.5005" gradientUnits="userSpaceOnUse">
<stop stop-color="#FA00FF"/>
<stop offset="1" stop-color="#26C3E6"/>
</linearGradient>
</defs>
</svg>
