<svg width="64" height="64" viewBox="0 0 64 64" fill="none" xmlns="http://www.w3.org/2000/svg">
<rect x="0.5" y="0.5" width="63" height="63" rx="9.5" fill="black" stroke="black"/>
<circle cx="32" cy="32" r="21" fill="white"/>
<ellipse cx="32" cy="30" rx="12" ry="9" fill="black"/>
<rect x="27" y="36" width="10" height="22" rx="5" fill="black"/>
<path d="M42.2454 19.2458C42.956 18.9498 43.7206 19.534 43.6217 20.2974L42.7545 26.9895C42.6555 27.7529 41.7673 28.123 41.1556 27.6556L35.7937 23.5585C35.1821 23.0911 35.3057 22.1368 36.0163 21.8408L42.2454 19.2458Z" fill="black"/>
<path d="M21.2836 19.2458C20.573 18.9498 19.8084 19.534 19.9074 20.2974L20.7746 26.9895C20.8735 27.7529 21.7618 28.123 22.3734 27.6556L27.7353 23.5585C28.347 23.0911 28.2233 22.1368 27.5127 21.8408L21.2836 19.2458Z" fill="black"/>
<path d="M28 45.9999C28 45.9999 23.7613 46.3345 22.5 44.4999C21.3938 42.8909 23.6403 41.085 22.5 39.4999C21.3095 37.8451 17.5 37.9999 17.5 37.9999C17.5 37.9999 19.8144 39.4916 20.5 40.9999C21.308 42.7775 19.5805 44.2774 20.5 45.9999C21.9275 48.6741 28 47.9999 28 47.9999V45.9999Z" fill="black" stroke="black"/>
</svg>
