<svg width="64" height="64" viewBox="0 0 64 64" fill="none" xmlns="http://www.w3.org/2000/svg">
<path d="M10 0.5H54C59.2467 0.5 63.5 4.75329 63.5 10V54C63.5 59.2467 59.2467 63.5 54 63.5H10C4.75329 63.5 0.5 59.2467 0.5 54V10C0.5 4.75329 4.75329 0.5 10 0.5Z" fill="white" stroke="black"/>
<rect x="31.3394" y="4.92097" width="13.4247" height="37.6635" transform="rotate(45 31.3394 4.92097)" fill="black" stroke="white"/>
<rect x="31.1997" y="58.832" width="13.4247" height="38.3798" transform="rotate(-135 31.1997 58.832)" fill="black" stroke="white"/>
<path d="M58.0458 31.5532L48.5531 41.0459L31.5533 24.0462C26.2338 18.7266 26.118 10.1737 31.206 4.71342L58.0458 31.5532Z" fill="black" stroke="white"/>
<path d="M30.9859 39.1679C36.3055 44.4875 36.4213 53.0403 31.3333 58.5006L4.70734 31.8747L14.2001 22.382L30.9859 39.1679Z" fill="black" stroke="white"/>
<path d="M45.9814 43.1963L37.2461 34.5997L41.0582 30.7261L49.7935 39.3227L45.9814 43.1963Z" fill="black"/>
<path d="M14.2097 40.498L5.38274 31.8112L15.919 21.105L24.746 29.7918L14.2097 40.498Z" fill="black"/>
</svg>
