<svg width="64" height="64" viewBox="0 0 64 64" fill="none" xmlns="http://www.w3.org/2000/svg">
<rect x="0.5" y="0.5" width="63" height="63" rx="9.5" fill="black" stroke="black"/>
<path d="M12.9632 18.5491L12.9632 18.5491C11.9966 17.6257 11.5 16.5008 11.5 15.1992C11.5 13.9087 11.9982 12.7959 12.9659 11.8859L12.9632 18.5491ZM12.9632 18.5491L12.9688 18.5543M12.9632 18.5491L12.9688 18.5543M12.9688 18.5543C13.9491 19.4626 15.1327 19.918 16.4922 19.918C17.8518 19.918 19.0303 19.4624 19.9988 18.5518L19.9989 18.5516M12.9688 18.5543L19.9989 18.5516M19.9989 18.5516C20.9792 17.629 21.4844 16.5034 21.4844 15.1992C21.4844 13.9072 20.9784 12.7946 19.9989 11.8858C19.0314 10.9629 17.8529 10.5 16.4922 10.5C15.1304 10.5 13.946 10.9636 12.9661 11.8857L19.9989 18.5516ZM11.8125 53.2852V53.7852H12.3125H20.6328H21.1328V53.2852V23.2852V22.7852H20.6328H12.3125H11.8125V23.2852V53.2852Z" fill="white" stroke="black"/>
<path d="M33.5186 53.7852H33.0186H24.6982H24.1982V53.2852V23.2852V22.7852H24.6982H32.6279H33.1279V23.2852V27.0893C33.8334 25.8494 34.8073 24.8242 36.0456 24.0191C37.704 22.9277 39.6981 22.3945 42.0029 22.3945C44.1611 22.3945 46.0678 22.8673 47.7057 23.8308C49.342 24.7933 50.6109 26.1684 51.5109 27.941M33.5186 53.7852L51.0654 28.168M33.5186 53.7852V53.2852V35.9439M33.5186 53.7852L33.0186 52.7852M51.5109 27.941C51.511 27.9412 51.5112 27.9414 51.5113 27.9416L51.0654 28.168M51.5109 27.941C51.5108 27.9407 51.5107 27.9405 51.5106 27.9402L51.0654 28.168M51.5109 27.941C52.4136 29.7056 52.8545 31.7923 52.8545 34.1836V53.2852V53.7852H52.3545H44.0342H43.5342V53.2852V35.668V35.6644C43.5466 33.9149 43.1009 32.6197 42.2607 31.7104L42.2586 31.7081C41.4201 30.7892 40.2562 30.3086 38.7021 30.3086C37.6568 30.3086 36.754 30.5327 35.9794 30.9666M51.0654 28.168C51.9248 29.8477 52.3545 31.8529 52.3545 34.1836V52.7852V53.2852H51.8545H44.5342H44.0342V52.7852V35.668C44.0472 33.832 43.5784 32.3997 42.6279 31.3711C41.6774 30.3294 40.3688 29.8086 38.7021 29.8086C37.5824 29.8086 36.5928 30.0495 35.7334 30.5312C34.887 31.013 34.223 31.7161 33.7412 32.6406M35.9794 30.9666C35.9798 30.9663 35.9803 30.966 35.9807 30.9658L35.7334 30.5313L35.9779 30.9674C35.9784 30.9671 35.9789 30.9668 35.9794 30.9666ZM35.9794 30.9666C35.2235 31.3972 34.6256 32.0261 34.1853 32.8704M34.1853 32.8704C34.1855 32.8701 34.1857 32.8697 34.1859 32.8693L33.7412 32.6406M34.1853 32.8704C34.1851 32.8708 34.1848 32.8713 34.1846 32.8717L33.7412 32.6406M34.1853 32.8704C33.7608 33.6964 33.5313 34.7148 33.5186 35.9439M33.7412 32.6406C33.2725 33.5521 33.0316 34.6523 33.0186 35.9414M33.0186 35.9414H33.5186V35.9439M33.0186 35.9414V52.7852M33.0186 35.9414L33.5185 35.9465C33.5185 35.9456 33.5185 35.9448 33.5186 35.9439M33.0186 52.7852V53.2852H32.5186L33.0186 52.7852Z" fill="white" stroke="black"/>
</svg>
