<svg width="64" height="64" viewBox="0 0 64 64" fill="none" xmlns="http://www.w3.org/2000/svg">
<rect x="0.5" y="0.5" width="63" height="63" rx="9.5" fill="white" stroke="black"/>
<path d="M52 16L44.5 13V22L52 25.5V16Z" fill="black" stroke="black" stroke-width="2" stroke-linejoin="round"/>
<path d="M10 14.5C10 13.9477 10.4477 13.5 11 13.5H44C44.5523 13.5 45 13.9477 45 14.5V45.5C45 46.0523 44.5523 46.5 44 46.5H11C10.4477 46.5 10 46.0523 10 45.5V14.5Z" fill="black" stroke="black" stroke-width="3"/>
<path d="M18 16.5568L10 13.5V46.7431L18 50.5V16.5568Z" fill="black" stroke="black" stroke-width="2" stroke-linejoin="round"/>
<path d="M18 17.5C18 16.9477 18.4477 16.5 19 16.5H52C52.5523 16.5 53 16.9477 53 17.5V49.5C53 50.0523 52.5523 50.5 52 50.5H19C18.4477 50.5 18 50.0523 18 49.5V17.5Z" fill="white" stroke="black" stroke-width="3"/>
<path d="M24.0938 23.5C25.317 23.5743 26.2455 23.6254 26.8795 23.6533C27.5223 23.6812 28.0625 23.6951 28.5 23.6951C29.0714 23.6951 29.7143 23.6812 30.4286 23.6533C31.1518 23.6161 31.9286 23.565 32.7589 23.5C32.8571 23.8717 33.0268 24.2619 33.2679 24.6707C33.5179 25.0703 33.9866 25.6974 34.6741 26.5523L42.4955 36.1411C42.5045 35.2491 42.5089 34.4036 42.5089 33.6045C42.5179 32.8055 42.5223 32.0528 42.5223 31.3467C42.5223 30.9843 42.5268 30.5151 42.5357 29.939C42.5446 29.3537 42.5491 28.9541 42.5491 28.7404C42.5491 27.2445 42.4063 26.2782 42.1205 25.8415C41.8438 25.3955 41.308 25.1725 40.5134 25.1725C40.3705 25.1725 40.2589 25.1771 40.1786 25.1864C40.0982 25.1864 40.0179 25.1911 39.9375 25.2003V23.5C40.5893 23.565 41.2366 23.6161 41.8795 23.6533C42.5313 23.6812 43.2277 23.6951 43.9688 23.6951C44.6741 23.6951 45.3527 23.6812 46.0045 23.6533C46.6652 23.6161 47.3304 23.565 48 23.5V25.2003C47.1964 25.2003 46.6518 25.27 46.3661 25.4094C46.0804 25.5395 45.875 25.7857 45.75 26.1481C45.6607 26.4454 45.5938 27.0168 45.5491 27.8624C45.5045 28.7079 45.4732 30.4222 45.4554 33.0052L45.4286 34.8589C45.4107 36.2805 45.3973 37.6185 45.3884 38.8728C45.3795 40.1179 45.375 41.1678 45.375 42.0226C45.375 42.162 45.3839 42.3618 45.4018 42.622C45.4196 42.8821 45.4464 43.1748 45.4821 43.5H41.0089C40.8929 43.2491 40.7321 42.975 40.5268 42.6777C40.3214 42.3711 39.9821 41.9344 39.5089 41.3676L29.9063 29.716C29.8884 30.5244 29.875 31.3281 29.8661 32.1272C29.8571 32.917 29.8527 33.874 29.8527 34.9983V37.6463C29.8527 39.4117 29.9911 40.536 30.2679 41.0192C30.5446 41.493 31.0804 41.73 31.875 41.73C32 41.73 32.1964 41.716 32.4643 41.6882C32.5089 41.6882 32.5491 41.6835 32.5848 41.6742V43.3885C31.6205 43.3328 30.7679 43.2909 30.0268 43.2631C29.2946 43.2352 28.6875 43.2213 28.2054 43.2213C27.7679 43.2213 27.1964 43.2352 26.4911 43.2631C25.7946 43.2909 24.9643 43.3328 24 43.3885V41.6742C24.0804 41.6742 24.1875 41.6789 24.3214 41.6882C24.4643 41.6974 24.558 41.7021 24.6027 41.7021C25.1563 41.7021 25.5714 41.6278 25.8482 41.4791C26.1339 41.3304 26.3527 41.0703 26.5045 40.6986C26.692 40.2062 26.817 38.4454 26.8795 35.4164C26.8973 34.831 26.9107 34.385 26.9196 34.0784L26.9732 32.3641C26.9821 31.8995 26.9866 31.3699 26.9866 30.7753C26.9955 30.1713 27 29.1911 27 27.8345C27 26.7846 26.8438 26.0784 26.5313 25.716C26.2277 25.3537 25.6429 25.1725 24.7768 25.1725C24.5982 25.1725 24.4598 25.1771 24.3616 25.1864C24.2723 25.1864 24.183 25.1911 24.0938 25.2003V23.5Z" fill="black"/>
</svg>
