<svg width="64" height="64" viewBox="0 0 64 64" fill="none" xmlns="http://www.w3.org/2000/svg">
<rect x="0.5" y="0.5" width="63" height="63" rx="9.5" fill="black" stroke="black"/>
<path d="M17.586 38.2567C10.219 45.3241 8.33538 48.2258 8.53105 58C8.53105 58 9.58678 47.8051 17.586 44.3743C25.5853 40.9436 35.6201 42.0948 44.7509 34.0856C54.7664 25.3004 57.3974 6.96948 55.3582 6C56.4772 7.52081 50.5906 24.5683 42.4225 27.4118C32.4628 30.879 25.3965 30.7638 17.586 38.2567Z" fill="white" stroke="black" stroke-linejoin="round"/>
<path d="M17.0684 34.0856C9.70144 41.153 7.8178 48.2258 8.01347 58C8.01347 58 9.06921 43.634 17.0684 40.2032C25.0677 36.7724 35.1025 37.9237 44.2334 29.9144C54.2488 21.1292 56.8799 6.96948 54.8406 6C55.9596 7.52081 50.0731 20.3971 41.9049 23.2406C31.9452 26.7078 24.879 26.5927 17.0684 34.0856Z" fill="white" stroke="black" stroke-linejoin="round"/>
<path d="M14.9661 40.4813C9.10818 45.0986 8.34856 48.2258 8.54423 58C8.54423 58 8.51912 46.1367 16.5184 42.7059C24.5176 39.2751 33.7763 40.1483 42.9071 32.139C52.9226 23.3538 57.4106 6.96948 55.3714 6C56.4904 7.52081 50.4417 24.631 38.8 29.3583C29.0065 33.3351 22.7274 34.3636 14.9661 40.4813Z" fill="white" stroke="black" stroke-linejoin="round"/>
</svg>
