<svg width="66" height="66" viewBox="0 0 66 66" fill="none" xmlns="http://www.w3.org/2000/svg">
<rect x="1" y="1" width="64" height="64" rx="10" fill="white" stroke="black"/>
<rect x="33.5" y="10.5" width="8" height="21" rx="4" fill="black" stroke="black"/>
<path d="M53.5 24.5V25.5C53.5 28.2614 51.2614 30.5 48.5 30.5H45.5V24.5C45.5 22.2909 47.2909 20.5 49.5 20.5C51.7091 20.5 53.5 22.2909 53.5 24.5Z" fill="black" stroke="black"/>
<path d="M40.5 53.5L39.5 53.5C36.7386 53.5 34.5 51.2614 34.5 48.5L34.5 45.5L40.5 45.5C42.7091 45.5 44.5 47.2909 44.5 49.5C44.5 51.7091 42.7091 53.5 40.5 53.5Z" fill="black" stroke="black"/>
<path d="M11.5 40.5L11.5 39.5C11.5 36.7386 13.7386 34.5 16.5 34.5L19.5 34.5L19.5 40.5C19.5 42.7091 17.7091 44.5 15.5 44.5C13.2909 44.5 11.5 42.7091 11.5 40.5Z" fill="black" stroke="black"/>
<path d="M24.5 11.5L25.5 11.5C28.2614 11.5 30.5 13.7386 30.5 16.5L30.5 19.5L24.5 19.5C22.2909 19.5 20.5 17.7091 20.5 15.5C20.5 13.2909 22.2909 11.5 24.5 11.5Z" fill="black" stroke="black"/>
<rect x="23.5" y="33.5" width="8" height="21" rx="4" fill="black" stroke="black"/>
<rect x="33.5" y="41.5" width="8" height="21" rx="4" transform="rotate(-90 33.5 41.5)" fill="black" stroke="black"/>
<rect x="10.5" y="31.5" width="8" height="21" rx="4" transform="rotate(-90 10.5 31.5)" fill="black" stroke="black"/>
</svg>
