<svg width="390" height="75" viewBox="0 0 390 75" fill="none" xmlns="http://www.w3.org/2000/svg">
<path d="M0 15C0 6.71573 6.71573 0 15 0H375C383.284 0 390 6.71573 390 15V75H0V15Z" fill="white"/>
<path d="M111.336 25.7628L101.737 16.1614C101.418 15.8421 101.039 15.5888 100.622 15.416C100.205 15.2432 99.7575 15.1543 99.306 15.1543C98.8545 15.1543 98.4074 15.2432 97.9903 15.416C97.5732 15.5888 97.1942 15.8421 96.875 16.1614L70.3826 42.6559C70.062 42.974 69.8079 43.3526 69.6349 43.7697C69.4619 44.1869 69.3736 44.6342 69.375 45.0858V54.6872C69.375 55.5989 69.7372 56.4732 70.3818 57.1179C71.0265 57.7625 71.9008 58.1247 72.8125 58.1247H82.4139C82.8655 58.1261 83.3128 58.0378 83.73 57.8648C84.1471 57.6918 84.5257 57.4377 84.8438 57.1171L111.336 30.6247C111.655 30.3055 111.909 29.9265 112.082 29.5094C112.254 29.0923 112.343 28.6452 112.343 28.1937C112.343 27.7422 112.254 27.2952 112.082 26.8781C111.909 26.461 111.655 26.082 111.336 25.7628ZM82.4139 54.6872H72.8125V45.0858L91.7188 26.1796L101.32 35.7809L82.4139 54.6872ZM103.75 33.3489L94.1487 23.7497L99.3049 18.5934L108.906 28.1926L103.75 33.3489Z" fill="#262626"/>
<path d="M212.188 16.875H207.031V15.1562C207.031 14.7004 206.85 14.2632 206.528 13.9409C206.206 13.6186 205.768 13.4375 205.312 13.4375C204.857 13.4375 204.419 13.6186 204.097 13.9409C203.775 14.2632 203.594 14.7004 203.594 15.1562V16.875H186.406V15.1562C186.406 14.7004 186.225 14.2632 185.903 13.9409C185.581 13.6186 185.143 13.4375 184.688 13.4375C184.232 13.4375 183.794 13.6186 183.472 13.9409C183.15 14.2632 182.969 14.7004 182.969 15.1562V16.875H177.812C176.901 16.875 176.026 17.2372 175.382 17.8818C174.737 18.5265 174.375 19.4008 174.375 20.3125V54.6875C174.375 55.5992 174.737 56.4735 175.382 57.1182C176.026 57.7628 176.901 58.125 177.812 58.125H212.188C213.099 58.125 213.974 57.7628 214.618 57.1182C215.263 56.4735 215.625 55.5992 215.625 54.6875V20.3125C215.625 19.4008 215.263 18.5265 214.618 17.8818C213.974 17.2372 213.099 16.875 212.188 16.875ZM182.969 20.3125V22.0312C182.969 22.4871 183.15 22.9243 183.472 23.2466C183.794 23.5689 184.232 23.75 184.688 23.75C185.143 23.75 185.581 23.5689 185.903 23.2466C186.225 22.9243 186.406 22.4871 186.406 22.0312V20.3125H203.594V22.0312C203.594 22.4871 203.775 22.9243 204.097 23.2466C204.419 23.5689 204.857 23.75 205.312 23.75C205.768 23.75 206.206 23.5689 206.528 23.2466C206.85 22.9243 207.031 22.4871 207.031 22.0312V20.3125H212.188V27.1875H177.812V20.3125H182.969ZM212.188 54.6875H177.812V30.625H212.188V54.6875ZM203.95 36.284C204.11 36.4436 204.237 36.6332 204.323 36.8418C204.41 37.0505 204.454 37.2741 204.454 37.5C204.454 37.7259 204.41 37.9495 204.323 38.1582C204.237 38.3668 204.11 38.5564 203.95 38.716L193.638 49.0285C193.478 49.1883 193.289 49.3151 193.08 49.4016C192.871 49.4881 192.648 49.5326 192.422 49.5326C192.196 49.5326 191.972 49.4881 191.764 49.4016C191.555 49.3151 191.365 49.1883 191.206 49.0285L186.05 43.8723C185.727 43.5498 185.546 43.1123 185.546 42.6562C185.546 42.2002 185.727 41.7627 186.05 41.4402C186.372 41.1177 186.81 40.9365 187.266 40.9365C187.722 40.9365 188.159 41.1177 188.482 41.4402L192.422 45.3826L201.518 36.284C201.678 36.1242 201.868 35.9974 202.076 35.9109C202.285 35.8244 202.509 35.7799 202.734 35.7799C202.96 35.7799 203.184 35.8244 203.393 35.9109C203.601 35.9974 203.791 36.1242 203.95 36.284Z" fill="#262626"/>
<path d="M318.047 27.1875C316.857 27.1875 315.694 27.5403 314.705 28.2013C313.716 28.8623 312.944 29.8018 312.489 30.901C312.034 32.0003 311.915 33.2098 312.147 34.3767C312.379 35.5436 312.952 36.6155 313.793 37.4568C314.634 38.2981 315.706 38.871 316.873 39.1032C318.04 39.3353 319.25 39.2161 320.349 38.7608C321.448 38.3055 322.388 37.5345 323.049 36.5452C323.71 35.556 324.063 34.3929 324.063 33.2031C324.063 31.6077 323.429 30.0776 322.301 28.9494C321.172 27.8213 319.642 27.1875 318.047 27.1875ZM318.047 35.7813C317.537 35.7813 317.039 35.63 316.615 35.3468C316.191 35.0635 315.86 34.6608 315.665 34.1897C315.47 33.7186 315.419 33.2003 315.518 32.7002C315.618 32.2001 315.863 31.7407 316.224 31.3801C316.584 31.0196 317.044 30.774 317.544 30.6745C318.044 30.5751 318.562 30.6261 319.033 30.8212C319.505 31.0164 319.907 31.3468 320.191 31.7708C320.474 32.1948 320.625 32.6932 320.625 33.2031C320.625 33.8869 320.353 34.5426 319.87 35.0261C319.386 35.5096 318.731 35.7813 318.047 35.7813ZM287.969 33.2031C287.969 32.0133 287.616 30.8503 286.955 29.861C286.294 28.8718 285.354 28.1007 284.255 27.6454C283.156 27.1901 281.946 27.071 280.78 27.3031C279.613 27.5352 278.541 28.1081 277.699 28.9494C276.858 29.7907 276.285 30.8626 276.053 32.0295C275.821 33.1965 275.94 34.406 276.395 35.5052C276.851 36.6044 277.622 37.5439 278.611 38.2049C279.6 38.8659 280.763 39.2188 281.953 39.2188C283.549 39.2188 285.079 38.585 286.207 37.4568C287.335 36.3287 287.969 34.7986 287.969 33.2031ZM281.953 35.7813C281.443 35.7813 280.945 35.63 280.521 35.3468C280.097 35.0635 279.766 34.6608 279.571 34.1897C279.376 33.7186 279.325 33.2003 279.425 32.7002C279.524 32.2001 279.77 31.7407 280.13 31.3801C280.491 31.0196 280.95 30.774 281.45 30.6745C281.95 30.5751 282.469 30.6261 282.94 30.8212C283.411 31.0164 283.813 31.3468 284.097 31.7708C284.38 32.1948 284.531 32.6932 284.531 33.2031C284.531 33.8869 284.26 34.5426 283.776 35.0261C283.293 35.5096 282.637 35.7813 281.953 35.7813ZM292.266 28.9063C293.455 28.9063 294.618 28.5534 295.608 27.8924C296.597 27.2314 297.368 26.2919 297.823 25.1927C298.279 24.0935 298.398 22.884 298.166 21.717C297.934 20.5501 297.361 19.4782 296.519 18.6369C295.678 17.7956 294.606 17.2227 293.439 16.9906C292.272 16.7585 291.063 16.8776 289.964 17.3329C288.864 17.7882 287.925 18.5593 287.264 19.5485C286.603 20.5378 286.25 21.7008 286.25 22.8906C286.25 24.4861 286.884 26.0162 288.012 27.1443C289.14 28.2725 290.67 28.9063 292.266 28.9063ZM292.266 20.3125C292.776 20.3125 293.274 20.4637 293.698 20.747C294.122 21.0303 294.452 21.4329 294.648 21.904C294.843 22.3751 294.894 22.8935 294.794 23.3936C294.695 23.8937 294.449 24.3531 294.089 24.7136C293.728 25.0742 293.269 25.3197 292.769 25.4192C292.268 25.5187 291.75 25.4676 291.279 25.2725C290.808 25.0774 290.405 24.7469 290.122 24.323C289.839 23.899 289.688 23.4005 289.688 22.8906C289.688 22.2069 289.959 21.5511 290.443 21.0676C290.926 20.5841 291.582 20.3125 292.266 20.3125ZM307.734 28.9063C308.924 28.9063 310.087 28.5534 311.076 27.8924C312.066 27.2314 312.837 26.2919 313.292 25.1927C313.747 24.0935 313.867 22.884 313.634 21.717C313.402 20.5501 312.829 19.4782 311.988 18.6369C311.147 17.7956 310.075 17.2227 308.908 16.9906C307.741 16.7585 306.532 16.8776 305.432 17.3329C304.333 17.7882 303.394 18.5593 302.733 19.5485C302.072 20.5378 301.719 21.7008 301.719 22.8906C301.719 24.4861 302.353 26.0162 303.481 27.1443C304.609 28.2725 306.139 28.9063 307.734 28.9063ZM307.734 20.3125C308.244 20.3125 308.743 20.4637 309.167 20.747C309.591 21.0303 309.921 21.4329 310.116 21.904C310.311 22.3751 310.362 22.8935 310.263 23.3936C310.163 23.8937 309.918 24.3531 309.557 24.7136C309.197 25.0742 308.737 25.3197 308.237 25.4192C307.737 25.5187 307.219 25.4676 306.748 25.2725C306.277 25.0774 305.874 24.7469 305.591 24.323C305.307 23.899 305.156 23.4005 305.156 22.8906C305.156 22.2069 305.428 21.5511 305.911 21.0676C306.395 20.5841 307.051 20.3125 307.734 20.3125ZM312.702 41.9816C311.829 41.5 311.059 40.851 310.437 40.0716C309.815 39.2923 309.353 38.398 309.077 37.4398C308.506 35.4746 307.312 33.7478 305.675 32.5191C304.038 31.2905 302.047 30.6262 300 30.6262C297.953 30.6262 295.962 31.2905 294.325 32.5191C292.688 33.7478 291.494 35.4746 290.923 37.4398C290.371 39.3678 289.077 40.998 287.324 41.9731C285.643 42.8827 284.313 44.3269 283.545 46.0771C282.777 47.8273 282.614 49.7838 283.082 51.6369C283.551 53.4901 284.623 55.1342 286.131 56.3093C287.639 57.4844 289.495 58.1233 291.406 58.125C292.552 58.1283 293.686 57.8995 294.741 57.4525C298.103 56.0658 301.878 56.0658 305.24 57.4525C307.277 58.3383 309.577 58.4012 311.659 57.6281C313.741 56.855 315.443 55.3058 316.408 53.3055C317.373 51.3051 317.526 49.0089 316.835 46.8982C316.144 44.7876 314.663 43.0263 312.702 41.9838V41.9816ZM308.594 54.6875C307.896 54.6881 307.205 54.547 306.563 54.2729C302.354 52.5341 297.627 52.5341 293.417 54.2729C292.194 54.7996 290.814 54.8325 289.567 54.3647C288.32 53.8969 287.302 52.9648 286.727 51.7634C286.152 50.5621 286.064 49.1848 286.482 47.9201C286.9 46.6554 287.79 45.6013 288.968 44.9787C290.234 44.2796 291.349 43.3378 292.251 42.2071C293.153 41.0765 293.823 39.7792 294.223 38.3895C294.586 37.1382 295.346 36.0387 296.388 35.2563C297.429 34.4738 298.697 34.0508 300 34.0508C301.303 34.0508 302.571 34.4738 303.612 35.2563C304.654 36.0387 305.414 37.1382 305.777 38.3895C306.178 39.7818 306.851 41.0813 307.755 42.2135C308.659 43.3456 309.778 44.2882 311.047 44.9873C312.061 45.531 312.864 46.398 313.328 47.4505C313.792 48.503 313.891 49.6805 313.609 50.7957C313.327 51.9108 312.68 52.8997 311.771 53.6049C310.863 54.3101 309.744 54.6912 308.594 54.6875Z" fill="#262626"/>
</svg>
