<svg width="637" height="139" viewBox="0 0 637 139" fill="none" xmlns="http://www.w3.org/2000/svg">
<path d="M10 69H627" stroke="url(#paint0_linear_500_29462)" stroke-width="20" stroke-linecap="square"/>
<path d="M45.112 82.84L47.992 75.16H77.752L80.632 82.84H45.112ZM62.68 50.968L51.352 77.656L50.584 79.384L40.6 103H31.48L62.68 32.44L93.88 103H84.76L74.968 79.96L74.2 78.04L62.68 50.968ZM102.055 35.8H110.215V95.32H136.615V103H102.055V35.8ZM145.274 35.8H153.434V95.32H179.834V103H145.274V35.8ZM210.554 43.48V35.8H253.274V43.48H235.994V103H227.834V43.48H210.554ZM266.411 70.36V62.68H312.491V70.36H266.411ZM307.019 35.8H315.179V103H307.019V35.8ZM261.899 35.8H270.059V103H261.899V35.8ZM335.036 103V95.32H368.924V103H335.036ZM335.036 43.48V35.8H368.924V43.48H335.036ZM335.036 70.36V62.68H367.004V70.36H335.036ZM330.524 35.8H338.684V103H330.524V35.8ZM412.086 35.8H420.246V103H412.086V35.8ZM416.598 43.48V35.8H430.326C434.678 35.8 438.55 36.632 441.942 38.296C445.398 39.896 448.118 42.2 450.102 45.208C452.15 48.216 453.174 51.8 453.174 55.96C453.174 60.056 452.15 63.64 450.102 66.712C448.118 69.72 445.398 72.056 441.942 73.72C438.55 75.32 434.678 76.12 430.326 76.12H416.598V68.44H430.326C434.678 68.44 438.198 67.384 440.886 65.272C443.638 63.16 445.014 60.056 445.014 55.96C445.014 51.8 443.638 48.696 440.886 46.648C438.198 44.536 434.678 43.48 430.326 43.48H416.598ZM469.192 103V95.32H503.08V103H469.192ZM469.192 43.48V35.8H503.08V43.48H469.192ZM469.192 70.36V62.68H501.16V70.36H469.192ZM464.68 35.8H472.84V103H464.68V35.8ZM510.741 43.48V35.8H553.461V43.48H536.181V103H528.021V43.48H510.741ZM564.582 82.648C566.118 85.336 567.718 87.704 569.382 89.752C571.11 91.8 573.03 93.4 575.142 94.552C577.254 95.704 579.654 96.28 582.342 96.28C585.926 96.28 588.806 95.288 590.982 93.304C593.158 91.32 594.246 88.792 594.246 85.72C594.246 82.712 593.542 80.312 592.134 78.52C590.726 76.728 588.87 75.288 586.566 74.2C584.326 73.048 581.926 72.024 579.366 71.128C577.702 70.552 575.846 69.816 573.798 68.92C571.75 67.96 569.798 66.776 567.942 65.368C566.086 63.896 564.55 62.104 563.334 59.992C562.182 57.88 561.606 55.288 561.606 52.216C561.606 48.888 562.438 45.912 564.102 43.288C565.766 40.664 568.07 38.616 571.014 37.144C573.958 35.608 577.318 34.84 581.094 34.84C584.742 34.84 587.91 35.544 590.598 36.952C593.35 38.296 595.686 40.056 597.606 42.232C599.526 44.344 601.03 46.584 602.118 48.952L595.11 52.984C594.278 51.32 593.222 49.688 591.942 48.088C590.662 46.488 589.094 45.176 587.238 44.152C585.446 43.128 583.238 42.616 580.614 42.616C576.966 42.616 574.31 43.512 572.646 45.304C570.982 47.032 570.15 48.984 570.15 51.16C570.15 53.016 570.63 54.744 571.59 56.344C572.55 57.88 574.15 59.352 576.39 60.76C578.694 62.104 581.798 63.448 585.702 64.792C587.494 65.432 589.382 66.264 591.366 67.288C593.35 68.312 595.174 69.624 596.838 71.224C598.566 72.76 599.974 74.648 601.062 76.888C602.15 79.064 602.694 81.688 602.694 84.76C602.694 87.704 602.118 90.36 600.966 92.728C599.878 95.096 598.342 97.112 596.358 98.776C594.438 100.44 592.23 101.72 589.734 102.616C587.302 103.512 584.742 103.96 582.054 103.96C578.406 103.96 575.014 103.192 571.878 101.656C568.806 100.056 566.086 97.976 563.718 95.416C561.414 92.792 559.526 90.008 558.054 87.064L564.582 82.648Z" fill="white"/>
<defs>
<linearGradient id="paint0_linear_500_29462" x1="10" y1="69.5" x2="627" y2="69.5048" gradientUnits="userSpaceOnUse">
<stop stop-color="#FA00FF"/>
<stop offset="1" stop-color="#26C3E6"/>
</linearGradient>
</defs>
</svg>
